<!-- icon666.com - MILLIONS OF FREE VECTOR ICONS --><svg version="1.1" id="Layer_1" xmlns="http://www.w3.org/2000/svg" xmlns:xlink="http://www.w3.org/1999/xlink" x="0px" y="0px" viewBox="0 0 512 512" style="enable-background:new 0 0 512 512;" xml:space="preserve"><g><g><path d="M266.893,161.714c-4.869-2.903-11.188-1.391-14.207,3.44c-3.026,4.841-1.601,11.202,3.168,14.299 c0.331,0.216,0.678,0.415,1.031,0.591c1.5,0.75,3.094,1.105,4.664,1.105c3.833,0,7.523-2.117,9.355-5.778 C273.371,170.436,271.568,164.483,266.893,161.714z"></path></g></g><g><g><path d="M182.143,288.933c-0.059-0.009-0.205-0.03-0.263-0.039c-5.703-0.787-11.032,3.199-11.821,8.917 c-0.789,5.718,3.163,10.984,8.881,11.773c0.543,0.085,1.081,0.125,1.615,0.125c5.064,0,9.512-3.688,10.312-8.849 C191.751,295.159,187.846,289.818,182.143,288.933z"></path></g></g><g><g><path d="M482.701,29.295C463.81,10.404,438.693,0,411.978,0c-25.071,0-48.732,9.162-67.162,25.902 c-26.052-5.503-54.22-3.151-82.258,7.204c-41.952,15.494-78.682,47.165-103.423,89.178c-5.452,9.259-10.237,18.917-14.263,28.751 c-2.5,0.885-4.986,1.83-7.452,2.848c-32.233,13.322-59.985,37.64-78.142,68.473c-19.735,33.512-27.064,72.09-20.891,109.255 c-5.347,5.058-8.562,8.886-9.619,10.197c-38.461,39.041-38.294,102.08,0.522,140.898C48.182,501.596,73.299,512,100.014,512 c26.716,0,51.832-10.404,70.724-29.295L482.703,170.74C521.699,131.744,521.698,68.291,482.701,29.295z M467.925,155.965 L155.96,467.929c-14.944,14.943-34.812,23.173-55.946,23.173s-41.003-8.23-55.947-23.174c-30.849-30.85-30.849-81.044,0-111.893 c0.312-0.312,0.591-0.644,0.857-0.983c0.001,0.002,0.003,0.004,0.004,0.007c0.358-0.461,36.64-46.117,106.424-47.265 c5.769-0.095,10.371-4.849,10.276-10.619c-0.095-5.711-4.754-10.277-10.445-10.277c-0.059,0-0.116,0-0.176,0.001 c-41.793,0.688-72.988,15.267-93.457,29.296c-2.174-28.553,4.62-57.567,19.736-83.234c32.612-55.38,95.466-81.984,152.853-64.696 c5.529,1.663,11.354-1.466,13.019-6.991c1.665-5.525-1.465-11.354-6.99-13.018c-20.93-6.305-43.302-7.582-65.263-3.943 c1.957-3.866,4.035-7.681,6.239-11.424c22.304-37.874,55.209-66.349,92.656-80.178c36.698-13.554,73.357-11.333,103.223,6.255 c4.971,2.928,11.378,1.271,14.306-3.701c2.928-4.973,1.271-11.378-3.702-14.306c-4.739-2.791-9.617-5.246-14.61-7.388 c12.684-8.238,27.478-12.672,42.96-12.672c21.134,0,41.003,8.23,55.947,23.174C498.773,74.921,498.773,125.115,467.925,155.965z"></path></g></g><g><g><path d="M412.261,60.45c-0.281-0.176-0.582-0.344-0.878-0.492c-5.161-2.581-11.439-0.488-14.018,4.673 c-2.495,4.99-0.623,11.023,4.169,13.75c1.63,0.934,3.415,1.381,5.179,1.381c3.484,0,6.888-1.742,8.871-4.913 C418.642,69.956,417.155,63.509,412.261,60.45z"></path></g></g></svg>