<?xml version="1.0" standalone="no"?>
<!DOCTYPE svg PUBLIC "-//W3C//DTD SVG 20010904//EN"
 "http://www.w3.org/TR/2001/REC-SVG-20010904/DTD/svg10.dtd">
<svg version="1.0" xmlns="http://www.w3.org/2000/svg"
 width="199.000000pt" height="200.000000pt" viewBox="0 0 199.000000 200.000000"
 preserveAspectRatio="xMidYMid meet">

<g transform="translate(0.000000,200.000000) scale(0.100000,-0.100000)"
fill="#000000" stroke="none">
<path d="M750 1975 c-352 -91 -622 -369 -712 -732 -32 -132 -30 -332 6 -468
93 -357 370 -628 732 -717 104 -25 311 -30 408 -9 323 70 568 262 705 551 151
322 124 674 -76 977 -54 83 -186 213 -271 267 -103 67 -184 103 -297 131 -83
21 -120 25 -249 25 -127 -1 -166 -5 -246 -25z m139 -546 c50 -17 61 -51 61
-183 0 -107 -2 -117 -24 -143 -24 -28 -25 -28 -151 -28 -126 0 -127 0 -151 28
-22 26 -24 36 -24 148 0 67 5 129 11 140 6 12 25 27 42 34 39 17 191 19 236 4z
m488 -22 c27 -26 28 -33 31 -136 4 -122 -9 -169 -54 -190 -30 -13 -213 -15
-248 -1 -43 16 -56 57 -56 174 0 170 18 188 192 184 103 -3 109 -4 135 -31z
m-476 -452 c16 -9 34 -27 39 -41 14 -35 13 -241 -1 -266 -17 -32 -71 -48 -164
-48 -93 0 -147 16 -164 48 -6 12 -11 73 -11 139 0 171 10 181 173 182 70 1
107 -3 128 -14z m452 3 c42 -22 46 -38 47 -171 0 -123 -1 -129 -25 -152 -23
-24 -30 -25 -147 -25 -174 1 -172 -1 -176 169 l-4 131 30 30 c30 30 31 30 142
30 65 0 120 -5 133 -12z"/>
<path d="M670 1255 l0 -105 105 0 105 0 0 105 0 105 -105 0 -105 0 0 -105z"/>
<path d="M1124 1347 c-3 -8 -4 -54 -2 -103 l3 -89 105 0 105 0 3 80 c5 130 9
125 -109 125 -74 0 -101 -3 -105 -13z"/>
<path d="M670 785 l0 -105 105 0 105 0 0 105 0 105 -105 0 -105 0 0 -105z"/>
<path d="M1124 887 c-2 -7 -3 -56 -2 -108 l3 -94 103 -3 103 -3 -3 108 -3 108
-98 3 c-75 2 -99 0 -103 -11z"/>
</g>
</svg>
